<?xml version="1.0" standalone="no"?>
<!DOCTYPE svg PUBLIC "-//W3C//DTD SVG 20010904//EN" "http://www.w3.org/TR/2001/REC-SVG-20010904/DTD/svg10.dtd">
<svg version="1.0" xmlns="http://www.w3.org/2000/svg" width="700.000000pt" height="700.000000pt"
    viewBox="0 0 700.000000 700.000000" preserveAspectRatio="xMidYMid meet">
    <metadata>
        Created by potrace 1.11, written by Peter Selinger 2001-2013
    </metadata>
    <g transform="translate(0.000000,700.000000) scale(0.100000,-0.100000)" fill="#000000" stroke="none">
        <path d="M1266 6903 c-1 -1 -56 -3 -123 -4 -67 -1 -143 -5 -170 -10 -26 -5
-59 -11 -73 -14 -147 -26 -362 -144 -492 -268 -133 -128 -252 -343 -284 -512
-2 -11 -6 -31 -9 -45 -3 -14 -8 -43 -10 -65 -6 -55 -6 -4221 0 -4270 3 -22 7
-51 10 -65 3 -14 8 -38 11 -54 7 -40 42 -142 63 -186 13 -26 16 -57 15 -121
-2 -76 0 -88 19 -110 12 -14 27 -33 32 -42 9 -14 547 -746 568 -772 4 -5 66
-90 138 -188 l131 -177 2466 3 c1357 1 2481 6 2497 10 17 5 50 13 73 18 99 22
256 86 325 133 21 14 40 26 43 26 12 0 104 79 180 154 84 84 174 211 218 307
30 66 72 193 80 240 3 19 10 57 15 84 6 31 10 670 11 1709 l0 1659 -86 196
c-48 108 -95 214 -105 236 -10 22 -48 108 -84 190 -37 83 -73 164 -80 180 -8
17 -49 111 -93 210 -44 99 -90 203 -102 230 -12 28 -28 64 -35 80 -22 49 -176
397 -195 440 -10 22 -59 135 -110 250 -51 116 -96 214 -101 219 -4 5 -21 3
-39 -4 -31 -13 -33 -12 -88 42 -172 166 -386 264 -619 284 -60 5 -3992 12
-3997 7z" />
    </g>
</svg>